# xmcd CD database file
#
# Track frame offsets:
#	150
#	36126
#	74453
#	108544
#	136996
#	175979
#	216546
#	239645
#	262219
#	288994
#
# Disc length: 3906 seconds
#
# Revision: 0
# Processed by: cddbd v1.5.1PL2 Copyright (c) Steve Scherf et al.
# Submitted via: CDex 1.51
#
DISCID=a70f400a
DTITLE=Oliver Friedli - Three Miles Off
DYEAR=2005
DGENRE=Jazz
TTITLE0=Morgen Station
TTITLE1=Happy Jack
TTITLE2=Silver City
TTITLE3=Valentine
TTITLE4=Sugartree
TTITLE5=Oceano
TTITLE6=Amarillo
TTITLE7=Far Rockaway
TTITLE8=Westend
TTITLE9=Sweetwater
EXTD=YEAR: 2005
EXTT0=
EXTT1=
EXTT2=
EXTT3=
EXTT4=
EXTT5=
EXTT6=
EXTT7=
EXTT8=
EXTT9=
PLAYORDER=
